<svg id="Layer_1" data-name="Layer 1" xmlns="http://www.w3.org/2000/svg" xmlns:xlink="http://www.w3.org/1999/xlink" viewBox="0 0 1000 1000">
  <defs>
    <style>
      .cls-1 {
        fill: url(#radial_gold);
      }

      .cls-2 {
        fill: url(#symmetric_gold);
      }

      .cls-3 {
        fill: #fff;
      }
    </style>
    <radialGradient id="radial_gold" data-name="radial gold" cx="500" cy="500.11" fy="-47.66661779459753" r="547.78" gradientUnits="userSpaceOnUse">
      <stop offset="0" stop-color="#f1e27a"/>
      <stop offset="0.13" stop-color="#e3c96b"/>
      <stop offset="0.28" stop-color="#d8b460"/>
      <stop offset="0.45" stop-color="#d0a657"/>
      <stop offset="0.66" stop-color="#cb9e52"/>
      <stop offset="1" stop-color="#ca9b51"/>
    </radialGradient>
    <linearGradient id="symmetric_gold" data-name="symmetric gold" x1="261.45" y1="409.34" x2="738.55" y2="409.34" gradientUnits="userSpaceOnUse">
      <stop offset="0.2" stop-color="#ca9b51"/>
      <stop offset="0.5" stop-color="#f1e27a"/>
      <stop offset="0.8" stop-color="#ca9b51"/>
    </linearGradient>
  </defs>
  <path class="cls-1" d="M886,215.85,500.05,2l-386,213.85s-67.26,574.06,386,782.38C952.48,789.91,886,215.85,886,215.85Z"/>
  <path d="M871.28,226.7,500.05,21,128.82,226.7S64.12,778.84,500.05,979.2C935.2,778.84,871.28,226.7,871.28,226.7Z"/>
  <path class="cls-2" d="M730.69,290.19,507.76,165a15.41,15.41,0,0,0-15.44.21L269.31,290a15.41,15.41,0,0,0-7.86,13.44v277a15.4,15.4,0,0,0,30.77-.93V499.58c0-.07,0-4,0-4.07l0-183a.05.05,0,0,1,0-.05L500.44,196.3a0,0,0,0,1,.05,0L707.71,312.63a.05.05,0,0,1,0,.05s0,311.88,0,311.88L379.63,625s-.05-30-.05-30V409.24a.05.05,0,0,1,0,0l120.59-75.07h.06l120.09,69.53s0,0,0,0V509c0,8.33,6.4,15.51,14.71,15.88a15.41,15.41,0,0,0,16.11-15.39V394.79a15.42,15.42,0,0,0-7.69-13.34L507.94,303a15.38,15.38,0,0,0-15.44,0l-136,84a15.4,15.4,0,0,0-7.56,15.33s-.11,231.84-.12,232c-.13,8.51,6.65,21.17,15.16,21.3H723.15a15.36,15.36,0,0,0,15.4-15.6V303.63A15.41,15.41,0,0,0,730.69,290.19Z"/>
  <g>
    <path class="cls-3" d="M327.75,711.66l7.8,29.25,6.83-29.25h12.67l-12.35,45.5H330.35l-7.8-28.28-7.8,28.28H302.4l-12.35-45.5h12.68l6.82,29.25,7.8-29.25Z"/>
    <path class="cls-3" d="M363.18,757.16H350.5l17.23-45.5h13L398,757.16H385.28L382.35,749H366.1ZM369,740.58h10.4l-5.2-15.27Z"/>
    <path class="cls-3" d="M412.9,748.06h23.73v9.1H401.2v-45.5h11.7Z"/>
    <path class="cls-3" d="M452.88,748.06H476.6v9.1H441.18v-45.5h11.7Z"/>
    <path class="cls-3" d="M520.15,756.18a265.67,265.67,0,0,1-27.95,1.63q-6.37,0-9.36-3t-3-9.36v-20.8q0-6.82,3.09-9.92t9.91-3.08h23.4v9.1h-20.8q-3.9,0-3.9,3.9v20.8a3,3,0,0,0,3.25,3.25q7.47,0,13.65-.33V739H500v-7.8h20.15Z"/>
    <path class="cls-3" d="M555.9,711.66h11.7v33.15q0,6.83-3.09,9.91t-9.91,3.09h-15q-6.82,0-9.91-3.09t-3.09-9.91V711.66h11.7v33.15q0,3.9,3.9,3.9H552q3.9,0,3.9-3.9Z"/>
    <path class="cls-3" d="M582.23,757.16H569.55l17.23-45.5h13L617,757.16H604.33L601.4,749H585.15Zm5.85-16.58h10.4l-5.2-15.27Z"/>
    <path class="cls-3" d="M620.25,711.66h27.3q6.83,0,9.91,3.08t3.09,9.92v5.85c0,3.59-.6,6.39-1.79,8.38a8.76,8.76,0,0,1-5.69,4l8.13,14.3H648.52l-7.47-13.65H632v13.65h-11.7Zm28.6,13q0-3.9-3.9-3.9H632v13.65h13q3.9,0,3.9-3.9Z"/>
    <path class="cls-3" d="M692.4,711.66q7.33,0,11.15,3.8t3.8,11.15v15.6q0,7.34-3.8,11.14t-11.15,3.81H667.05v-45.5Zm3.25,15q0-5.85-5.85-5.85h-11v27.3h11q5.85,0,5.85-5.85Z"/>
  </g>
</svg>
